<?xml version="1.0" standalone="no"?>
<!DOCTYPE svg PUBLIC "-//W3C//DTD SVG 20010904//EN"
 "http://www.w3.org/TR/2001/REC-SVG-20010904/DTD/svg10.dtd">
<svg version="1.0" xmlns="http://www.w3.org/2000/svg"
 width="1440.000000pt" height="762.000000pt" viewBox="0 0 1440.000000 762.000000"
 preserveAspectRatio="xMidYMid meet">
<metadata>
Created by potrace 1.16, written by Peter Selinger 2001-2019
</metadata>
<g transform="translate(0.000000,762.000000) scale(0.100000,-0.100000)"
fill="#000000" stroke="none">
<path d="M13076 6565 c95 -94 142 -166 156 -242 6 -35 8 -72 3 -89 l-9 -29 -6
35 -7 35 -3 -35 c-1 -19 -6 -46 -10 -60 -6 -20 -8 -14 -10 30 -1 30 -4 47 -7
38 -7 -28 -23 -21 -24 10 0 15 -5 36 -10 47 -6 13 -7 1 -3 -36 4 -36 2 -59 -5
-63 -6 -4 -11 -2 -11 4 0 22 -17 0 -23 -29 -3 -16 -16 -44 -28 -63 -11 -18
-18 -25 -15 -15 12 37 17 72 9 61 -15 -20 -41 -13 -36 10 3 16 0 15 -12 -6
-18 -32 -27 -37 -19 -10 4 9 -5 4 -20 -13 -14 -16 -25 -26 -26 -20 0 5 -6 0
-14 -11 -8 -11 -33 -26 -55 -33 -23 -6 -48 -23 -57 -36 -18 -27 -61 -34 -82
-13 -9 9 -12 8 -12 -8 0 -16 -2 -15 -13 6 -7 14 -20 26 -29 28 -13 2 -17 -4
-16 -30 0 -49 29 -104 63 -122 34 -18 111 -26 141 -15 13 5 6 8 -23 8 -32 1
-45 6 -53 21 -10 19 -9 19 16 8 22 -10 28 -10 32 0 5 16 29 16 35 0 4 -10 6
-10 6 -1 1 11 88 30 107 23 4 -1 11 4 15 12 6 9 9 9 9 1 0 -6 8 -12 18 -12 9
0 32 -3 49 -7 41 -8 75 2 53 16 -24 15 -5 12 47 -9 26 -10 66 -21 88 -24 22
-3 61 -12 88 -20 51 -16 55 -13 31 21 -10 14 -11 22 -4 22 29 0 158 -79 204
-125 54 -53 116 -155 93 -151 -19 2 -67 42 -62 50 3 3 2 4 -2 1 -3 -3 -13 1
-22 8 -12 9 -11 5 3 -17 11 -17 20 -48 21 -70 1 -23 0 -35 -2 -28 -3 6 -13 12
-24 12 -15 0 -19 -7 -19 -36 0 -35 -18 -64 -39 -64 -6 0 -11 5 -11 10 0 6 -4
10 -9 10 -5 0 -8 -32 -7 -71 1 -56 -3 -73 -16 -83 -11 -8 -14 -16 -8 -22 13
-13 -16 -54 -37 -54 -11 0 -14 -7 -11 -24 3 -14 1 -30 -3 -38 -4 -7 -3 -18 3
-25 8 -10 7 -12 -5 -7 -9 3 -22 2 -29 -2 -7 -5 -17 -9 -23 -9 -5 -1 -9 -7 -7
-14 1 -7 -2 -10 -8 -6 -6 3 -8 11 -5 16 4 5 1 9 -5 9 -7 0 -10 -7 -7 -15 4 -8
2 -17 -4 -21 -6 -4 -4 -15 6 -30 8 -13 11 -24 7 -24 -5 0 -8 -18 -7 -41 2 -26
-1 -36 -6 -28 -6 10 -9 7 -10 -11 -1 -14 -1 -31 0 -37 1 -7 -2 -13 -7 -13 -5
0 -8 -17 -6 -37 1 -21 3 -38 4 -38 7 0 6 -35 -1 -46 -6 -10 -9 -8 -9 9 0 12
-4 22 -9 22 -11 0 -34 -88 -26 -100 3 -5 0 -12 -6 -15 -5 -4 -8 -13 -5 -21 3
-8 -1 -17 -9 -20 -8 -3 -14 -16 -13 -27 1 -12 -4 -39 -11 -59 -7 -21 -11 -41
-8 -45 5 -10 -29 -43 -37 -35 -3 3 -6 1 -6 -5 0 -5 -11 -15 -25 -21 -15 -7
-25 -20 -25 -32 0 -13 4 -18 11 -15 6 4 5 -2 -2 -13 -7 -12 -17 -18 -22 -15
-5 3 -4 -4 2 -16 9 -16 9 -21 0 -19 -6 2 -13 -5 -14 -14 -4 -21 6 -23 24 -5 7
7 6 -4 -5 -28 -9 -22 -16 -41 -15 -42 5 -12 -2 -19 -20 -20 -28 -2 -48 -20
-64 -60 -9 -22 -21 -33 -34 -33 l-21 0 20 -35 c11 -20 20 -42 20 -50 0 -8 5
-16 10 -16 44 -6 70 -21 76 -44 3 -13 15 -27 25 -30 10 -4 19 -10 19 -14 0
-27 180 -62 207 -40 10 9 13 8 13 -2 0 -9 14 -15 40 -15 22 -1 38 1 36 5 -9
14 33 9 44 -5 7 -7 16 -11 21 -8 5 3 9 1 9 -5 0 -5 15 -15 34 -21 19 -6 37
-18 40 -26 3 -8 12 -14 20 -12 12 2 67 -49 104 -97 17 -23 64 -126 66 -148 1
-12 6 -28 10 -35 4 -7 4 -17 0 -24 -5 -7 -3 -8 5 -3 10 5 11 -4 7 -40 -4 -40
-3 -45 8 -30 11 16 12 14 8 -13 -2 -18 -8 -30 -12 -27 -12 7 -22 -31 -25 -85
-3 -58 -3 -60 -15 -60 -5 0 -11 12 -11 28 -2 23 -2 24 -6 5 -2 -13 -11 -23
-20 -23 -11 0 -14 -7 -11 -25 4 -21 3 -23 -14 -14 -10 5 -18 6 -17 2 1 -4 0
-10 -1 -13 -4 -12 -12 -48 -17 -80 -3 -19 -12 -40 -19 -48 -8 -7 -14 -22 -14
-33 0 -10 -4 -19 -8 -19 -4 0 -9 -12 -10 -27 -1 -15 -9 -38 -18 -51 -9 -13
-11 -21 -4 -17 7 4 4 -5 -6 -21 -11 -15 -14 -25 -7 -21 6 4 15 2 19 -4 4 -7 3
-9 -4 -5 -17 10 -41 -21 -34 -46 5 -19 4 -20 -10 -7 -9 7 -14 17 -11 22 2 4 2
7 -1 7 -5 0 -45 -86 -45 -96 0 -3 -9 -14 -20 -23 -11 -10 -18 -21 -14 -24 3
-4 -5 -16 -18 -27 -21 -18 -22 -19 -4 -14 15 4 13 1 -5 -10 -14 -8 -21 -15
-17 -16 12 0 -33 -61 -60 -83 -13 -10 -20 -24 -16 -30 4 -6 0 -8 -10 -4 -9 3
-33 -8 -61 -29 -25 -19 -46 -31 -46 -27 0 4 -5 0 -11 -9 -5 -10 -15 -18 -20
-18 -6 0 -17 -7 -26 -15 -8 -8 -18 -13 -22 -10 -5 2 -14 -7 -21 -21 -8 -15
-16 -20 -20 -14 -4 7 -12 -2 -20 -19 -7 -17 -16 -31 -21 -31 -5 0 -9 -7 -9
-15 0 -8 -4 -15 -10 -15 -5 0 -10 -5 -10 -11 0 -5 5 -7 10 -4 6 3 10 -3 10
-15 0 -12 -4 -18 -10 -15 -5 3 -10 -1 -10 -9 0 -9 -4 -16 -10 -16 -5 0 -7 -7
-4 -15 4 -10 0 -15 -11 -15 -9 0 -14 -4 -11 -9 8 -13 -4 -42 -15 -35 -5 3 -9
-2 -9 -10 0 -8 -12 -24 -27 -36 -16 -12 -28 -25 -28 -28 0 -4 -10 -6 -23 -5
-12 1 -20 -2 -17 -7 3 -5 1 -11 -5 -15 -5 -3 -10 1 -10 10 0 15 -1 15 -16 1
-8 -9 -21 -17 -27 -17 -43 -5 -64 -3 -76 6 -11 7 -13 7 -7 -2 5 -10 -6 -13
-46 -13 -31 0 -48 4 -40 8 7 5 -6 7 -33 6 -33 -2 -47 2 -55 14 -8 14 -10 14
-10 2 0 -12 -3 -11 -11 3 -8 14 -14 16 -24 7 -8 -7 -19 -9 -26 -5 -8 6 -7 10
2 16 10 6 10 9 2 9 -6 0 -15 -5 -18 -10 -5 -8 -11 -8 -20 0 -7 6 -36 12 -64
13 -28 1 -51 6 -51 10 0 5 -22 7 -50 6 -27 -2 -52 0 -56 4 -4 3 -16 2 -27 -4
-17 -10 -37 -13 -122 -23 -12 -1 -25 -5 -31 -8 -5 -4 -26 -5 -47 -3 -20 2 -37
0 -37 -4 0 -5 -15 -6 -33 -2 -18 5 -40 7 -50 5 -9 -1 -17 2 -17 7 0 5 5 9 10
9 6 0 10 4 10 10 0 5 -18 9 -40 8 -21 -1 -46 4 -54 11 -8 6 -16 8 -18 3 -1 -5
-19 -2 -38 6 -19 9 -46 14 -59 13 -13 -2 -21 1 -18 6 8 12 -77 12 -85 -1 -5
-7 -8 -7 -8 3 0 7 -6 11 -15 7 -8 -3 -15 0 -15 7 0 8 -4 6 -10 -3 -5 -8 -10
-10 -10 -3 0 7 -14 9 -42 6 -24 -3 -55 -5 -70 -4 -16 0 -28 -5 -28 -12 0 -8
-3 -8 -9 2 -6 9 -18 11 -42 5 -19 -4 -47 -7 -64 -7 -16 0 -36 -4 -44 -11 -12
-8 -13 -8 -7 2 5 8 0 12 -14 12 -14 0 -19 -4 -14 -12 6 -10 4 -10 -7 -1 -17
17 -46 17 -52 1 -4 -10 -6 -10 -6 0 -1 19 -21 14 -21 -5 0 -14 -2 -15 -9 -4
-6 10 -13 11 -29 2 -13 -7 -23 -7 -27 -2 -12 21 -135 -60 -135 -89 0 -6 -6
-10 -14 -10 -7 0 -13 -8 -12 -19 1 -23 -102 -104 -125 -98 -9 2 -16 -2 -16 -9
0 -7 3 -11 7 -9 4 2 7 -2 7 -10 0 -10 -5 -11 -18 -4 -12 6 -20 5 -25 -3 -4 -7
-3 -8 4 -4 7 4 12 2 12 -3 0 -6 8 -11 18 -11 14 0 15 -2 2 -10 -10 -6 -16 -6
-18 0 -2 6 -8 10 -13 10 -6 0 -7 -6 -3 -12 4 -7 4 -10 -1 -6 -4 4 -14 3 -22
-3 -9 -9 -13 -8 -13 0 0 9 -5 9 -21 0 -15 -8 -19 -8 -15 0 4 7 -1 11 -13 11
-12 0 -21 -7 -21 -15 0 -8 -4 -15 -9 -15 -5 0 -12 -7 -15 -16 -5 -14 -4 -15 9
-4 12 10 15 10 15 -1 0 -11 2 -11 10 1 8 13 10 13 10 -1 0 -10 12 -19 30 -23
20 -3 30 -12 30 -23 0 -14 2 -15 9 -4 12 19 102 -25 94 -47 -5 -12 -2 -12 16
-2 18 9 29 8 61 -8 22 -11 37 -15 34 -11 -9 15 8 10 29 -9 11 -9 17 -12 14 -5
-5 7 -1 12 10 11 10 0 27 3 37 7 14 6 17 5 12 -3 -4 -7 -1 -12 9 -12 11 0 15
5 12 14 -5 14 10 36 25 36 4 0 8 -7 8 -17 0 -13 4 -12 19 6 13 15 20 18 24 9
3 -10 9 -10 24 -2 11 7 31 10 46 7 15 -3 32 -3 39 0 22 8 33 7 33 -2 0 -5 4
-13 9 -18 5 -5 6 -3 2 5 -4 7 -2 12 6 13 7 0 23 2 35 3 14 2 25 -4 28 -14 8
-25 37 -21 30 4 -4 14 0 12 10 -7 12 -20 20 -25 28 -19 7 6 15 11 20 11 4 1 8
1 10 2 10 4 56 5 52 1 -2 -3 3 -11 13 -19 9 -8 12 -12 6 -9 -6 3 -11 -1 -11
-8 0 -14 21 -16 33 -3 4 4 14 1 22 -6 11 -8 14 -8 9 0 -4 6 -3 14 3 18 10 6
14 -7 11 -32 -1 -7 5 -13 13 -13 8 0 18 -5 22 -12 4 -7 3 -8 -4 -4 -7 4 -12 2
-12 -4 0 -7 6 -10 13 -7 6 2 11 11 11 20 -1 9 4 13 12 10 8 -3 11 -9 8 -14 -3
-5 0 -9 7 -9 7 0 10 -3 6 -6 -3 -4 4 -15 16 -24 21 -17 23 -17 41 -2 11 9 16
11 12 4 -4 -7 -1 -15 8 -18 9 -3 13 -11 10 -16 -4 -6 -1 -14 5 -18 9 -5 7 -11
-5 -21 -10 -8 -15 -9 -11 -3 4 7 1 14 -7 17 -8 3 -22 -10 -35 -33 -54 -97
-193 -135 -419 -115 -40 3 -51 1 -45 -8 4 -7 -2 -5 -12 3 -11 9 -16 10 -11 2
8 -14 -19 -12 -43 2 -9 6 -12 5 -8 -2 5 -6 0 -8 -13 -5 -11 3 -20 1 -20 -5 0
-6 -8 -8 -19 -5 -10 3 -22 0 -25 -5 -4 -7 -17 -7 -36 -2 -18 5 -30 5 -30 -1 0
-5 -5 -9 -11 -9 -5 0 -7 5 -3 12 5 7 3 8 -7 2 -20 -12 -59 -13 -66 -1 -3 6 -2
7 3 4 6 -3 16 -2 23 2 8 6 -4 11 -35 16 -47 8 -48 9 -19 16 21 6 14 7 -22 3
-44 -4 -53 -2 -53 11 0 9 -4 14 -9 11 -27 -17 -117 -14 -107 3 3 4 -5 8 -17 8
-17 2 -19 0 -7 -8 11 -7 5 -9 -21 -7 -26 1 -35 6 -32 15 3 7 0 13 -6 13 -6 0
-11 -6 -11 -13 0 -9 -10 -12 -30 -9 -19 3 -30 0 -30 -7 0 -7 6 -9 13 -5 9 5 9
4 0 -6 -10 -10 -15 -11 -27 -1 -10 8 -16 9 -21 1 -3 -5 -14 -10 -23 -10 -15 0
-15 2 -2 10 12 7 10 9 -7 7 -12 0 -19 -5 -16 -11 4 -5 -3 -7 -15 -4 -12 4 -22
1 -22 -4 0 -6 -6 -5 -15 2 -8 7 -15 9 -15 4 0 -5 -18 -10 -41 -10 -23 -1 -44
-7 -49 -14 -6 -9 -9 -9 -15 0 -5 8 -12 7 -26 -6 -13 -12 -19 -13 -19 -4 0 10
-3 10 -15 0 -8 -7 -24 -10 -35 -7 -11 3 -23 1 -26 -4 -8 -13 -44 -11 -44 2 0
7 -10 9 -25 7 -14 -3 -28 -1 -32 5 -4 6 -1 7 7 2 9 -5 11 -4 6 4 -4 6 -12 9
-17 5 -5 -3 -7 -9 -4 -14 3 -4 -10 -8 -28 -7 -19 0 -34 6 -34 13 0 7 6 10 12
7 7 -2 15 2 18 10 3 9 -1 14 -11 14 -33 0 -42 3 -42 14 0 8 6 7 17 -2 14 -12
16 -12 11 1 -2 7 -20 23 -39 33 -19 10 -37 23 -42 28 -4 5 -4 7 -1 5 8 -6 66
61 62 71 -2 4 -6 7 -10 6 -5 -2 -8 2 -8 7 0 6 6 10 13 10 15 0 23 83 10 103
-4 6 -9 30 -9 51 -1 24 -8 42 -18 48 -9 5 -16 17 -16 26 0 10 -23 39 -50 65
-28 26 -48 52 -45 57 5 8 -31 34 -45 33 -3 0 -11 2 -18 5 -7 2 -18 0 -24 -6
-7 -7 -17 -8 -28 -2 -12 7 -25 1 -48 -20 -18 -16 -32 -26 -32 -22 0 4 -4 2 -8
-3 -4 -6 -23 -23 -42 -39 -19 -16 -27 -27 -17 -23 24 9 22 -15 -4 -33 -12 -8
-27 -21 -35 -28 -7 -7 -16 -13 -19 -12 -17 1 -18 -1 -5 -10 12 -7 8 -11 -17
-16 -17 -3 -34 -12 -37 -19 -3 -10 -13 -11 -33 -6 -16 4 -51 3 -80 -4 -29 -7
-53 -10 -53 -6 0 3 -5 -2 -11 -11 -5 -10 -19 -18 -30 -18 -16 0 -19 -5 -14
-20 6 -18 2 -20 -49 -20 -47 0 -56 -3 -56 -17 0 -12 -3 -14 -8 -6 -4 7 -16 10
-27 8 -11 -2 -37 -4 -58 -4 -23 -1 -36 -5 -32 -11 3 -5 2 -10 -4 -10 -5 0 -11
4 -13 9 -1 5 -34 11 -71 14 -37 2 -72 8 -78 14 -7 7 -2 9 18 6 l28 -4 -30 14
c-16 8 -40 13 -53 12 -17 -2 -21 2 -17 15 7 22 -5 26 -83 29 -40 1 -70 -3 -80
-11 -13 -11 -14 -11 -8 0 5 8 -8 5 -33 -7 -47 -24 -49 -27 -21 -27 11 0 20 5
20 11 0 5 4 4 9 -3 11 -17 18 -17 38 4 15 15 17 14 26 -1 5 -9 6 -19 3 -22 -3
-4 -6 -1 -6 6 0 8 -5 9 -19 1 -11 -5 -29 -10 -40 -10 -11 0 -23 -4 -26 -10 -3
-6 1 -7 9 -4 9 3 16 1 16 -6 0 -6 4 -9 9 -6 5 4 7 -4 3 -16 -4 -16 -2 -19 8
-13 8 5 11 4 6 -3 -4 -6 -13 -9 -22 -5 -8 3 -14 2 -12 -3 1 -5 -3 -19 -10 -30
-6 -12 -9 -31 -7 -43 2 -11 -1 -21 -7 -21 -5 0 -7 -7 -4 -16 3 -8 2 -12 -3 -9
-12 7 -19 -4 -24 -36 -7 -36 -33 -95 -46 -103 -6 -4 -11 -14 -11 -22 0 -8 4
-13 9 -9 14 8 25 -35 12 -48 -6 -6 -11 -16 -11 -21 1 -6 14 5 31 24 16 19 25
36 20 38 -9 3 23 77 38 86 3 2 6 -9 7 -24 1 -16 -2 -29 -5 -28 -19 2 -31 -3
-31 -13 0 -8 5 -7 16 2 13 11 14 9 8 -17 -6 -28 -6 -28 9 -9 22 27 22 2 0 -33
l-17 -27 23 20 24 20 -23 -45 -22 -45 36 40 36 40 -21 -50 -20 -50 27 25 28
25 -17 -28 c-10 -15 -15 -27 -13 -27 3 0 -8 -14 -24 -32 -16 -17 -27 -35 -24
-40 3 -4 2 -8 -3 -8 -4 0 -30 -26 -58 -58 -48 -55 -41 -56 18 -3 37 34 35 12
-3 -24 -45 -43 -27 -43 25 -1 53 44 57 41 14 -9 -37 -42 -26 -47 17 -7 17 15
48 42 70 61 21 18 62 55 89 80 54 51 88 76 69 50 -17 -23 -103 -133 -113 -144
-4 -5 -30 -28 -57 -50 -26 -22 -72 -62 -102 -89 -127 -113 -263 -125 -402 -35
-34 21 -68 39 -78 39 -17 0 -92 46 -92 56 0 3 5 2 11 -1 5 -4 20 -8 32 -10 38
-6 76 -15 104 -25 l28 -10 -25 21 -25 22 35 -8 c33 -7 34 -6 15 9 -20 15 -20
15 3 11 12 -2 20 0 17 6 -4 5 -12 9 -19 9 -8 0 -19 7 -26 15 -7 9 -16 12 -19
7 -3 -4 -14 0 -23 10 -10 10 -14 18 -8 18 11 0 9 28 -3 48 -6 8 0 15 15 21 14
6 17 10 7 10 -9 1 -23 9 -33 20 -16 17 -15 18 14 17 31 -1 40 -10 18 -19 -8
-3 -6 -6 5 -6 9 -1 17 4 17 9 0 6 10 10 23 11 l22 0 -22 11 c-13 6 -23 15 -23
19 0 5 -7 6 -15 3 -8 -4 -17 1 -21 10 -5 14 -9 14 -22 4 -10 -8 -13 -9 -9 -1
8 13 -18 43 -39 43 -8 0 -14 4 -14 9 0 5 -9 11 -21 14 -15 4 -19 11 -14 25 3
11 1 23 -4 26 -6 4 -8 13 -5 21 4 10 0 12 -15 8 -15 -4 -21 -1 -21 12 0 12 6
15 23 10 12 -3 17 -3 12 2 -6 4 -16 20 -24 35 -8 16 -18 28 -23 28 -4 0 -8 8
-8 18 0 14 -2 15 -10 2 -7 -12 -9 -10 -7 7 l1 23 22 -21 c13 -12 24 -16 28
-10 4 5 2 12 -4 16 -17 11 -11 25 10 25 17 0 19 2 8 14 -9 10 -17 11 -25 4 -8
-7 -13 -7 -13 -1 0 6 -16 9 -35 8 -37 -2 -70 13 -48 21 7 3 10 13 7 22 -5 15
-4 15 6 0 15 -24 27 -23 35 2 4 11 11 18 16 15 5 -4 9 -2 9 4 0 5 -4 13 -10
16 -5 3 -10 1 -10 -5 0 -6 -5 -8 -10 -5 -6 4 -8 12 -4 18 3 7 -2 3 -10 -7 -9
-11 -19 -17 -23 -13 -3 4 2 17 13 28 19 22 19 22 -6 14 -27 -9 -90 -9 -98 0
-3 3 6 5 21 5 14 0 28 4 31 9 5 8 -47 6 -71 -4 -7 -2 -13 0 -13 6 0 6 -13 8
-32 4 -18 -3 -42 -7 -53 -8 -11 -2 -26 -6 -32 -10 -7 -5 -17 -6 -22 -2 -5 3
-16 -1 -24 -9 -8 -8 -17 -13 -20 -9 -3 3 -19 -2 -35 -10 -16 -8 -44 -13 -62
-12 -18 2 -27 -1 -21 -5 10 -5 9 -9 -2 -13 -8 -3 -20 0 -26 6 -9 9 -13 7 -17
-9 -4 -17 -12 -20 -45 -17 -36 3 -43 -2 -41 -27 0 -3 -8 -6 -19 -6 -10 0 -19
5 -19 10 0 6 -8 -1 -17 -14 -10 -14 -17 -29 -15 -35 1 -5 -5 -1 -13 9 -14 19
-15 19 -15 -7 0 -19 -4 -25 -15 -21 -8 4 -12 11 -8 17 3 6 1 7 -5 3 -12 -7 -5
-36 9 -36 4 0 -3 -11 -17 -25 -22 -22 -29 -24 -42 -13 -14 10 -15 10 -4 -2 14
-17 16 -34 2 -25 -5 3 -10 -1 -10 -9 0 -8 -9 -18 -20 -21 -12 -4 -19 -14 -18
-23 2 -9 -2 -17 -9 -17 -7 0 -17 -6 -23 -12 -5 -7 -7 -11 -3 -8 3 3 15 -3 26
-12 12 -11 17 -12 12 -4 -5 9 -4 12 2 8 5 -3 10 -25 10 -49 0 -24 -1 -34 -4
-23 -10 47 -12 49 -33 30 -11 -10 -20 -25 -19 -34 0 -12 3 -11 9 4 8 19 8 19
15 1 6 -13 3 -21 -8 -28 -19 -10 -23 -28 -6 -28 5 0 7 6 4 13 -4 6 1 3 9 -7
15 -19 22 -11 16 19 -1 5 2 7 6 2 4 -4 15 0 24 8 15 14 18 14 23 1 4 -9 -10
-27 -34 -48 -22 -18 -49 -41 -60 -50 -10 -10 -19 -15 -19 -11 0 4 -6 -2 -14
-13 -10 -12 -11 -22 -5 -29 6 -6 -2 -19 -23 -38 -18 -15 -28 -27 -23 -26 6 1
19 1 29 0 29 -2 10 -15 -22 -16 -17 0 -27 -5 -27 -15 0 -10 -8 -14 -23 -12
-15 2 -20 -1 -17 -11 4 -8 -5 -18 -20 -25 -16 -7 -23 -17 -19 -24 4 -7 3 -8
-4 -4 -7 4 -12 2 -12 -4 0 -6 -5 -8 -11 -5 -6 4 -17 -1 -25 -11 -9 -11 -13
-13 -9 -4 4 10 2 9 -8 -2 -8 -10 -16 -16 -19 -13 -2 2 -21 0 -43 -6 -21 -6
-50 -12 -64 -13 -14 -2 -34 -7 -43 -11 -10 -4 -25 -5 -33 -1 -8 3 -15 1 -15
-5 0 -7 -12 -8 -30 -4 -17 4 -49 4 -72 0 -64 -11 -26 -25 70 -25 48 0 82 -4
82 -10 0 -5 8 -10 18 -11 11 0 12 -2 4 -6 -7 -3 -18 -1 -25 4 -7 5 -18 8 -24
7 -7 -1 -25 -2 -40 -3 -22 -1 -25 -3 -13 -11 10 -7 -13 -10 -75 -11 -78 -1
-85 -2 -51 -10 63 -15 57 -21 -14 -15 -44 3 -55 2 -35 -3 30 -9 30 -9 -9 -10
-28 -1 -37 3 -33 12 3 8 -1 14 -9 14 -7 0 -10 -5 -7 -10 4 -6 -1 -8 -11 -4
-10 4 -22 7 -27 7 -6 0 -7 5 -3 12 5 8 0 9 -14 6 -12 -4 -25 -2 -28 3 -4 6
-11 6 -19 -1 -7 -6 -15 -7 -17 -2 -1 5 -14 12 -28 16 l-25 7 25 -16 c24 -15
24 -16 3 -10 -13 3 -33 8 -45 11 -38 11 -15 -5 48 -31 57 -24 57 -25 19 -20
-36 5 -33 2 25 -20 36 -14 72 -29 80 -32 8 -4 23 -7 32 -8 9 -1 30 -7 45 -13
30 -11 120 -30 168 -36 17 -1 -4 -4 -45 -5 -74 -1 -246 37 -278 62 -8 6 -21
12 -30 13 -58 7 -281 82 -352 118 -47 23 -153 77 -235 118 -83 42 -157 83
-164 91 -7 9 -25 18 -39 22 -15 3 -33 14 -40 25 -15 24 0 26 22 4 9 -8 16 -13
16 -10 0 3 12 -1 26 -9 29 -15 67 -9 42 6 -7 5 -9 9 -4 9 5 0 -9 14 -30 31
-45 35 -55 46 -34 34 13 -8 13 -6 1 8 -7 9 -18 14 -24 10 -6 -4 -7 -1 -3 6 5
7 1 20 -9 31 -11 12 -13 20 -6 25 15 9 33 -4 24 -18 -4 -7 1 -6 10 2 16 12 13
18 -31 61 -27 26 -54 63 -61 81 -7 19 -17 42 -23 53 -5 10 -5 16 0 13 19 -13
5 73 -18 102 -19 26 -25 29 -39 18 -14 -11 -14 -10 -2 6 15 19 57 45 48 30 -7
-13 30 -46 38 -33 4 6 4 14 1 17 -3 4 -6 0 -6 -8 0 -12 -2 -12 -9 0 -7 10 -4
19 7 28 11 8 12 12 5 13 -7 0 -13 4 -13 9 0 5 10 7 22 3 13 -3 19 -1 15 5 -5
7 1 9 15 5 12 -3 19 -1 15 5 -3 5 0 10 8 10 8 0 12 -4 10 -8 -8 -11 6 -40 16
-34 4 3 6 12 3 20 -8 20 5 38 19 27 7 -5 22 -8 35 -6 12 2 22 -1 22 -8 0 -6 7
-4 18 5 20 19 37 23 27 7 -3 -5 1 -10 10 -10 10 0 13 5 9 12 -5 8 -2 9 9 5 9
-3 19 -2 22 3 5 8 26 4 80 -15 11 -4 15 -3 10 2 -6 4 -12 19 -13 33 -1 18 1
21 8 10 5 -8 7 -17 5 -20 -2 -4 2 -7 10 -7 10 0 12 4 5 12 -5 7 -7 15 -3 18 6
6 -11 11 -29 8 -4 0 -23 6 -43 15 -20 8 -40 12 -45 9 -6 -4 -10 -3 -10 2 0 4
-12 9 -26 10 -15 0 -29 5 -33 11 -3 5 -19 8 -34 6 -19 -2 -27 1 -24 9 3 7 11
11 18 9 12 -3 12 -1 0 10 -9 9 -15 10 -18 2 -2 -6 -14 -9 -27 -7 -17 4 -28 -2
-40 -19 -9 -12 -19 -21 -22 -19 -11 7 -63 -22 -57 -32 3 -5 1 -7 -5 -4 -13 9
-44 -2 -37 -13 3 -5 -3 -7 -12 -5 -10 1 -22 0 -28 -4 -10 -5 -58 -11 -99 -12
-11 0 -26 -8 -33 -17 -8 -9 -11 -11 -8 -4 6 11 -3 12 -46 7 -30 -4 -72 -7 -94
-6 -29 0 -36 -2 -25 -9 11 -7 3 -10 -30 -11 -38 -1 -41 -2 -20 -9 l25 -8 -27
-2 c-16 -1 -33 -3 -40 -4 -26 -3 -19 -26 9 -27 49 -1 -4 -17 -62 -19 -40 -1
-46 -3 -27 -10 29 -12 28 -18 -3 -12 -14 2 -25 9 -25 16 0 7 -3 7 -8 1 -4 -6
-19 -16 -34 -24 -23 -12 -30 -12 -45 0 -11 9 -14 10 -9 2 7 -12 -12 -19 -39
-13 -24 4 -136 2 -141 -3 -3 -3 10 -9 30 -12 40 -8 56 -23 36 -35 -6 -4 -12
-11 -13 -16 -1 -4 -18 -7 -37 -6 -19 1 -29 -1 -22 -4 6 -3 10 -10 6 -15 -3 -5
3 -9 13 -10 16 0 16 -1 -1 -8 -16 -6 -11 -10 28 -22 54 -16 81 -38 42 -34 -14
2 -29 6 -35 9 -5 4 -29 9 -53 12 -24 4 -58 12 -75 20 -43 17 -42 11 4 -21 38
-25 31 -34 -10 -15 -27 13 -11 1 48 -36 l40 -25 -35 7 c-56 10 -120 42 -185
91 l-60 45 70 -66 c39 -37 94 -83 123 -103 29 -20 51 -38 49 -40 -6 -5 -97 24
-112 37 -8 7 -15 10 -15 7 0 -4 46 -39 102 -79 56 -39 157 -117 223 -171 218
-179 373 -233 645 -224 168 5 277 -5 362 -34 60 -20 214 -113 376 -226 188
-132 374 -215 659 -293 238 -65 299 -75 478 -74 141 1 172 4 260 27 143 39
281 110 425 219 214 163 264 197 315 212 65 18 364 30 434 16 57 -11 63 -13
180 -79 112 -62 154 -75 251 -75 71 0 94 4 140 26 74 35 148 101 268 238 55
64 119 128 142 144 49 32 122 45 255 46 50 0 163 7 253 15 225 20 280 12 431
-61 260 -126 243 -124 966 -130 861 -7 938 3 1288 170 150 71 206 91 400 140
304 77 512 190 857 466 234 187 349 304 453 460 l37 55 0 831 0 831 -22 20
c-13 11 -42 32 -65 46 l-41 26 18 59 c39 125 53 215 53 352 0 207 -43 346
-154 487 -54 69 -56 75 -34 126 14 33 12 67 -4 67 -3 0 -14 7 -24 14 -16 13
-16 18 -2 80 9 37 13 71 11 75 -3 4 -25 16 -50 25 -42 16 -44 19 -39 50 10 62
-25 205 -71 285 -42 77 -191 235 -212 227 -6 -2 -11 1 -12 7 -8 62 -20 81
-108 173 -52 55 -94 100 -94 102 0 6 90 -64 128 -100 49 -48 56 -35 10 18 -35
39 -38 44 -137 208 -41 68 -86 127 -125 164 -34 31 -89 89 -124 127 -35 39
-61 63 -57 55 4 -8 -4 -3 -17 11 -35 40 -146 134 -195 166 -15 10 4 -13 43
-52z m-1073 -4917 c-4 -7 -6 -20 -5 -30 2 -9 -14 -28 -38 -45 -22 -15 -48 -34
-58 -41 -9 -6 22 6 71 28 48 21 87 37 87 35 0 -2 -19 -17 -42 -34 -45 -33 -44
-40 1 -16 16 8 31 12 34 8 4 -3 17 1 29 9 24 15 100 37 153 44 28 3 29 3 8 -8
-13 -6 -23 -14 -23 -19 0 -4 -8 -5 -18 -2 -12 3 -30 -7 -50 -27 -18 -17 -32
-27 -32 -21 0 15 -22 14 -58 -4 -17 -9 -30 -21 -28 -28 1 -7 1 -9 -1 -5 -6 10
-123 -49 -123 -62 0 -5 -7 -7 -15 -4 -8 4 -21 2 -28 -4 -26 -21 -126 -42 -219
-44 -54 -2 -98 1 -98 5 0 5 6 5 13 1 6 -4 8 -3 4 2 -10 10 -58 14 -52 4 7 -11
-44 -16 -90 -9 -37 6 -36 6 20 9 59 2 60 3 18 9 -69 12 -62 21 18 23 l74 2
-80 5 c-58 4 -83 3 -91 -7 -9 -10 -13 -9 -18 3 -3 9 -11 15 -18 14 -29 -3 -49
2 -43 11 4 6 11 8 16 5 5 -4 9 -2 9 4 0 11 13 12 115 13 33 1 52 3 42 5 -9 3
-15 9 -11 14 3 5 9 7 14 4 5 -3 19 -1 31 6 19 10 21 9 16 -5 -4 -9 -2 -16 3
-16 6 0 10 8 10 17 0 13 3 14 12 5 18 -18 38 -15 31 6 -6 15 -5 15 10 3 10 -8
20 -11 24 -7 3 3 0 6 -7 6 -11 0 -11 3 -2 12 10 10 15 10 21 -1 11 -17 52 -5
45 13 -3 8 17 23 55 40 33 15 63 31 66 36 11 17 35 11 28 -7 -4 -10 -2 -14 5
-9 6 3 13 2 17 -4 10 -16 21 -12 51 19 39 40 118 71 97 39z m696 -77 c-34 -17
-66 -26 -134 -38 -16 -3 -56 -15 -87 -28 -32 -13 -58 -21 -58 -17 0 4 -4 2 -8
-3 -18 -27 -110 -67 -214 -94 -62 -16 -131 -36 -152 -45 -21 -9 -42 -13 -47
-10 -5 3 -9 0 -9 -6 0 -7 -7 -10 -15 -6 -8 3 -15 1 -15 -4 0 -9 -73 -34 -140
-48 -37 -8 -338 -6 -405 2 -22 3 -73 5 -114 5 -41 1 -72 3 -69 7 3 3 124 7
269 10 318 6 366 16 606 125 23 11 82 30 130 43 48 13 122 36 163 51 41 14 82
28 90 30 8 2 35 8 60 13 25 6 65 14 90 17 25 4 47 9 49 11 2 2 14 4 25 4 16
-1 12 -5 -15 -19z m-7069 -640 c164 -82 329 -171 317 -171 -6 1 -45 14 -84 29
-40 16 -73 27 -73 26 0 -2 54 -32 120 -66 66 -34 118 -64 116 -66 -5 -6 -189
64 -248 93 -26 13 -89 51 -140 85 -50 33 -114 69 -140 81 -27 11 -47 23 -44
25 7 7 102 -26 161 -54 28 -14 46 -20 40 -15 -5 6 -41 27 -80 47 -38 19 -59
33 -45 30 14 -4 59 -23 100 -44z m2609 -20 c66 -7 144 -2 236 13 33 6 37 5 21
-5 -10 -6 -41 -20 -70 -30 -68 -25 -26 -25 76 0 84 20 90 15 25 -24 -94 -55
-230 -83 -319 -66 -41 7 -63 19 -101 54 l-49 44 74 -13 c103 -18 110 -17 51
11 -52 24 -72 42 -33 30 11 -3 51 -10 89 -14z m223 -171 c-12 -5 -59 -17 -104
-26 -80 -16 -188 -15 -333 3 l-50 6 30 13 c22 10 91 13 255 13 145 0 217 -3
202 -9z"/>
<path d="M1070 2905 c0 -28 -7 -30 -34 -10 -10 8 -24 11 -30 7 -19 -11 -36
-11 -36 1 0 9 -3 8 -8 0 -5 -8 -26 -12 -55 -10 -26 1 -47 -2 -47 -7 0 -5 -2
-7 -6 -4 -3 3 -20 2 -39 -2 -19 -4 -35 -4 -37 1 -2 5 -8 1 -15 -9 -10 -17 -7
-19 33 -19 29 0 51 -6 62 -16 15 -16 15 -17 -1 -18 -33 -3 -36 -4 -57 -21 -11
-10 -30 -18 -43 -18 -35 0 -67 -11 -61 -21 3 -5 14 -9 25 -9 25 0 25 -17 -1
-25 -11 -3 -20 -11 -20 -16 0 -12 -37 -12 -61 1 -13 8 -19 7 -19 0 0 -6 7 -13
15 -16 8 -4 12 -11 8 -17 -3 -5 -2 -8 3 -5 17 10 44 -6 35 -20 -10 -17 -94
-18 -134 -3 -54 21 -42 10 22 -20 47 -22 61 -33 51 -39 -11 -7 -7 -11 15 -20
17 -6 47 -17 68 -25 32 -13 64 -25 142 -55 11 -4 38 -15 60 -24 46 -19 92 -29
260 -56 127 -21 207 -36 240 -46 17 -6 16 -3 -5 16 -21 18 -22 20 -5 15 11 -4
39 -12 63 -18 23 -6 42 -14 42 -19 0 -4 7 -8 16 -8 27 0 5 18 -45 36 -28 10
-48 21 -45 26 3 4 0 8 -5 8 -6 0 -37 23 -68 52 -32 28 -49 48 -38 43 11 -5 35
-9 53 -9 18 0 28 -2 22 -6 -9 -6 52 -6 70 -1 3 1 -12 11 -33 22 -24 12 -35 24
-31 32 4 7 4 9 0 5 -12 -10 -49 28 -41 41 3 7 12 11 18 10 35 -4 44 2 39 26
-2 14 -11 25 -18 25 -8 0 -14 4 -14 10 0 5 -8 7 -17 4 -17 -5 -17 -5 -1 6 10
6 15 17 11 27 -5 11 -3 14 6 8 10 -6 11 -3 1 15 -6 12 -8 25 -4 28 4 4 9 1 11
-5 3 -7 20 -13 38 -13 18 0 35 -4 37 -9 2 -5 15 -13 30 -16 27 -7 28 -7 17 24
-10 28 -20 36 -41 32 -5 0 -7 4 -5 11 1 7 -11 17 -28 23 -16 5 -42 18 -57 28
-19 13 -34 16 -50 11 -13 -4 -27 -7 -33 -5 -5 2 -14 4 -20 5 -24 4 -47 23 -36
30 6 4 11 12 11 17 0 10 -42 5 -61 -7 -8 -4 -9 -3 -5 4 4 7 1 13 -6 13 -7 1
-26 2 -43 4 -16 1 -36 3 -43 4 -7 0 -10 6 -7 11 3 6 1 10 -4 10 -6 0 -11 -11
-11 -25z"/>
<path d="M2874 2637 c-10 -6 -13 -16 -8 -30 7 -22 7 -22 -15 -3 -18 17 -21 17
-15 3 6 -16 3 -16 -36 -2 -50 18 -53 18 -46 6 8 -12 -89 -89 -121 -97 -12 -4
-23 -10 -23 -14 0 -4 -10 -8 -22 -8 -22 -1 -63 -9 -63 -12 0 -12 -211 -32
-229 -22 -14 8 -66 8 -58 1 18 -17 155 -37 238 -35 99 1 104 -3 37 -24 -24 -7
-43 -17 -43 -23 0 -5 -7 -6 -16 -3 -8 3 -12 2 -9 -4 3 -6 -5 -10 -19 -10 -14
0 -26 -5 -26 -11 0 -6 7 -9 15 -6 8 4 17 3 19 -2 8 -12 -27 -10 -43 3 -11 8
-13 8 -8 0 8 -14 -36 -24 -55 -13 -21 14 -45 10 -45 -6 0 -9 10 -15 24 -15 13
0 26 -7 29 -15 4 -8 17 -15 31 -15 13 0 21 -4 18 -10 -3 -5 -1 -10 6 -10 7 0
10 -3 7 -6 -3 -3 -16 1 -27 8 -16 10 -25 10 -39 2 -12 -8 -24 -8 -41 0 -19 8
-25 8 -29 -2 -3 -9 -9 -9 -25 -1 -17 9 -23 8 -34 -7 -11 -15 -13 -16 -13 -2 0
9 -5 20 -12 24 -7 5 -9 2 -5 -9 5 -13 0 -15 -31 -10 -20 3 -53 9 -72 14 -49
12 -59 11 -30 -5 14 -8 28 -12 32 -10 5 3 8 1 8 -4 0 -13 112 -39 262 -62 118
-18 120 -18 58 -20 -46 -1 -59 -4 -45 -10 32 -13 -175 1 -240 16 -16 4 -17 3
-5 -5 8 -6 10 -11 4 -11 -6 0 -17 6 -24 14 -6 8 -18 12 -25 10 -8 -3 -53 6
-100 21 -121 37 -126 27 -8 -13 54 -18 115 -42 135 -53 21 -11 42 -17 48 -14
5 3 10 1 10 -6 0 -8 -12 -10 -37 -6 -20 4 -32 3 -27 -2 11 -9 144 -47 199 -56
22 -4 60 -13 85 -20 62 -19 283 -40 415 -40 182 1 265 15 393 66 l53 22 59
-57 c60 -58 81 -66 115 -43 11 7 44 23 74 35 44 18 57 20 70 10 12 -9 11 -7
-2 8 -17 21 -17 21 15 28 l33 7 -24 19 c-13 11 -20 20 -15 20 4 0 -7 15 -26
34 -46 45 -60 63 -60 75 0 18 -31 41 -57 41 -21 0 -23 3 -14 14 7 8 24 17 38
21 16 4 22 9 16 13 -6 4 -14 24 -18 44 -6 33 -10 37 -30 32 -33 -8 -43 15 -17
37 28 22 28 29 0 29 -18 0 -20 2 -8 9 8 6 18 7 22 5 4 -3 8 0 8 5 0 6 5 11 11
11 6 0 17 7 25 15 18 18 14 19 -23 4 -41 -16 -71 -18 -76 -5 -3 8 6 10 28 8
26 -3 36 1 44 17 10 17 9 20 -4 15 -8 -4 -23 0 -32 7 -11 10 -14 10 -9 2 5 -9
2 -11 -8 -7 -19 7 -21 21 -5 26 7 2 -6 5 -27 6 -87 5 -102 7 -96 16 3 5 -2 7
-11 3 -9 -3 -19 -2 -22 3 -4 6 -19 10 -35 10 -16 0 -31 4 -34 8 -2 4 -21 9
-41 10 -24 2 -34 -1 -30 -8 4 -7 -4 -8 -27 -4 -18 3 -46 6 -62 6 -16 -1 -39 4
-50 10 -20 11 -20 11 -1 19 17 6 15 7 -8 6 -15 -1 -34 -5 -43 -10z"/>
<path d="M8392 2343 c-6 -2 -9 -10 -6 -16 5 -9 3 -9 -6 0 -10 9 -17 7 -33 -13
-11 -14 -25 -23 -31 -21 -8 3 -12 -3 -10 -16 1 -12 3 -23 4 -24 7 -8 5 -30 -3
-47 -6 -12 -6 -16 1 -12 6 3 13 2 17 -4 4 -6 11 -8 16 -5 13 8 11 -9 -2 -22
-8 -8 -8 -13 0 -17 6 -4 11 -12 11 -17 0 -6 -4 -8 -9 -5 -4 3 -6 -6 -3 -19 2
-14 11 -25 20 -25 12 0 13 -3 4 -12 -14 -14 -16 -32 -3 -23 5 3 13 0 17 -6 4
-7 3 -9 -4 -5 -6 3 -13 2 -16 -3 -3 -5 1 -11 9 -15 9 -3 12 -12 9 -21 -8 -20
17 -70 27 -54 5 8 12 8 28 -1 18 -9 20 -14 10 -26 -10 -12 -6 -13 25 -10 31 4
38 2 45 -16 5 -14 10 -17 15 -10 4 6 13 9 21 6 8 -4 12 -11 8 -17 -3 -6 -1 -7
5 -3 6 4 31 8 55 10 23 1 48 5 54 9 6 4 14 3 18 -3 11 -17 34 13 24 31 -4 9
-5 19 -2 23 3 3 -1 6 -11 6 -9 0 -14 5 -11 10 4 6 10 8 15 5 5 -3 12 0 16 6 4
7 3 9 -3 6 -6 -4 -17 1 -24 10 -12 14 -12 16 0 8 10 -5 12 -4 7 3 -4 7 -14 12
-21 12 -18 0 -38 37 -29 52 4 6 3 8 -3 5 -9 -6 -15 4 -46 70 -5 12 -13 20 -17
18 -9 -5 -32 38 -28 51 2 5 -7 20 -19 33 -12 13 -20 32 -18 43 3 14 0 18 -11
14 -8 -3 -13 -2 -10 3 9 13 -32 44 -49 37 -9 -3 -18 1 -21 9 -6 16 -11 17 -32
8z"/>
</g>
</svg>
